# xmcd CD database file
#
# Track frame offsets:
#	150
#	16237
#	45725
#	68112
#	83012
#	99950
#	112850
#	127550
#	137287
#	154525
#	172862
#
# Disc length: 2488 seconds
#
# Revision: 0
# Processed by: cddbd v1.5.2PL0 Copyright (c) Steve Scherf et al.
# Submitted via: Feurio! 1.68 - http://www.feurio.com
#
DISCID=6b09b60b
DTITLE=James "Son" Thomas - Blues Classics
DYEAR=1900
DGENRE=Blues
TTITLE0=Big Fat Mama
TTITLE1=The Real Catfish Blues
TTITLE2=Standing At The Crossroads
TTITLE3=61 Highway
TTITLE4=Beefsteak Blues
TTITLE5=Good Morning Little Schoolgirl
TTITLE6=Stormy Monday Blues
TTITLE7=Rock Me Mama
TTITLE8=Mama Don't Low No Guitar Playing Round Here
TTITLE9=Hoochie Coochie Man - Tune In Next Time
TTITLE10=Smokey Mountain Blues
EXTD=James "Son" Thomas   voc, guitars\r\nJ. R. Williams bass (on 7)\r\nMose 
EXTD=Rutues   drums (on7)\r\nCleveland "Broomman" Jones   broom bass 
EXTD=(on8)\r\nrecorded\r\nNovember 15, 1982 in Frankfurt/M., Germany (1-3, 6, 
EXTD=7)\r\nNovember 24, 1982 in Siegen, Germany (4, 5)\r\nOctober/November 
EXTD=1982 in Leland, MIS, USA (8, 9)\r\nNovember 6, 1982 in Frankfurt/Oder, 
EXTD=Germany (10)\r\nOctober 23, 1985 at Capitol Mannheim, Germany (11)
EXTT0=
EXTT1=
EXTT2=
EXTT3=
EXTT4=
EXTT5=
EXTT6=
EXTT7=
EXTT8=
EXTT9=
EXTT10=
PLAYORDER=
